KRSPY-parametric-NarrowBlackMinGrade.ufo
<glyph name="one" format="2">
  <advance width="884"/>
  <unicode hex="0031"/>
  <outline>
    <contour>
      <point x="55" y="0" type="line"/>
      <point x="832" y="0" type="line" identifier="CURJAw79Zl"/>
      <point x="832" y="373" type="line" identifier="0DUCJo8xIi"/>
      <point x="738" y="373" type="line" identifier="5nmxQXofSG"/>
      <point x="738" y="1600" type="line" identifier="4rjIeWbSbx"/>
      <point x="52" y="1600" type="line"/>
      <point x="52" y="1227" type="line"/>
      <point x="149" y="1227" type="line"/>
      <point x="149" y="373" type="line"/>
      <point x="55" y="373" type="line"/>
    </contour>
  </outline>
</glyph>
<glyph name="three" format="2">
  <advance width="1442.5005005005005"/>
  <unicode hex="0033"/>
  <outline>
    <contour>
      <point x="78.85085085085086" y="0.0" type="line" identifier="O9abUc1nmN"/>
      <point x="1364.6496496496497" y="0.0" type="line" identifier="kMJYMTfXCq"/>
      <point x="1364.6496496496497" y="892.2942942942943" type="line" identifier="su2XmdS8e8"/>
      <point x="1246.6116116116116" y="892.2942942942943" type="line" identifier="JQaOzDQqlF"/>
      <point x="1246.6116116116116" y="894.9129129129129" type="line"/>
      <point x="1321.3063063063064" y="961.9309309309309" type="line" identifier="S91TzLL02W"/>
      <point x="1321.3063063063064" y="1600.0" type="line" identifier="xg8x2Ki40p"/>
      <point x="81.53053053053054" y="1600.0" type="line" identifier="pE1XSRiy68"/>
      <point x="81.53053053053054" y="1051.8008008008007" type="line" identifier="5lNstGRcSF"/>
      <point x="670.7737737737738" y="1051.8008008008007" type="line" identifier="AcE5xKDZfE"/>
      <point x="670.7737737737738" y="1218.8008008008007" type="line" identifier="7ogBYufWpl"/>
      <point x="732.063063063063" y="1218.8008008008007" type="line" identifier="RHLvSX2Jv6"/>
      <point x="732.063063063063" y="961.9309309309309" type="line" identifier="YUjTrmoWd9"/>
      <point x="662.8058058058058" y="895.5925925925926" type="line"/>
      <point x="662.8058058058058" y="892.2942942942943" type="line" identifier="iic1IBkDqp"/>
      <point x="159.85785785785785" y="892.2942942942943" type="line" identifier="lRLJEhXMlO"/>
      <point x="159.85785785785785" y="664.3883883883884" type="line" identifier="8aKgEELrVU"/>
      <point x="775.4064064064064" y="664.3883883883884" type="line" identifier="Dm8zjmbhNr"/>
      <point x="775.4064064064064" y="373.13113113113116" type="line" identifier="xv9CFHiFgB"/>
      <point x="668.0940940940941" y="373.13113113113116" type="line" identifier="YajKQV3MHP"/>
      <point x="668.0940940940941" y="493.1991991991992" type="line" identifier="36SchVkwze"/>
      <point x="78.85085085085086" y="493.1991991991992" type="line" identifier="tVui9PiOjA"/>
    </contour>
  </outline>
</glyph>
<glyph name="four" format="2">
  <advance width="1427.4614614614616"/>
  <unicode hex="0034"/>
  <outline>
    <contour>
      <point x="742.6486486486486" y="0.0" type="line"/>
      <point x="1331.8918918918919" y="0.0" type="line"/>
      <point x="1331.8918918918919" y="602.2302302302303" type="line"/>
      <point x="1422.7427427427428" y="602.2302302302303" type="line"/>
      <point x="1422.7427427427428" y="975.3613613613613" type="line"/>
      <point x="1331.8918918918919" y="975.3613613613613" type="line"/>
      <point x="1331.8918918918919" y="1600.0" type="line"/>
      <point x="742.6486486486486" y="1600.0" type="line"/>
      <point x="742.6486486486486" y="975.3613613613613" type="line"/>
      <point x="653.055055055055" y="975.3613613613613" type="line"/>
      <point x="653.055055055055" y="1024.0890890890892" type="line"/>
      <point x="738.9039039039039" y="1680.0" type="line"/>
      <point x="163.5745745745746" y="1680.0" type="line"/>
      <point x="63.811811811811815" y="1023.0890890890892" type="line"/>
      <point x="63.811811811811815" y="602.2302302302303" type="line"/>
      <point x="742.6486486486486" y="602.2302302302303" type="line"/>
    </contour>
  </outline>
</glyph>
<glyph name="six" format="2">
  <advance width="1435.820820820821"/>
  <unicode hex="0036"/>
  <outline>
    <contour>
      <point x="73.36436436436438" y="0.0" type="line" identifier="uiw6aBUf4P"/>
      <point x="1359.96996996997" y="0.0" type="line" identifier="jtYkxiUX6G"/>
      <point x="1359.96996996997" y="905.8848848848849" type="line" identifier="2G5L37c87I"/>
      <point x="662.6076076076076" y="905.8848848848849" type="line"/>
      <point x="662.6076076076076" y="1116.2772772772773" type="line"/>
      <point x="681.5205205205206" y="1226.868868868869" type="line"/>
      <point x="770.047047047047" y="1226.868868868869" type="line"/>
      <point x="770.047047047047" y="1069.5495495495495" type="line"/>
      <point x="1358.4834834834835" y="1069.5495495495495" type="line" identifier="Wuidbv6mUe"/>
      <point x="1358.4834834834835" y="1600.0" type="line" identifier="oGvEEuxnYv"/>
      <point x="117.96796796796797" y="1600.0" type="line" identifier="xR3pEHbMJx"/>
      <point x="73.36436436436438" y="1117.2772772772773" type="line" identifier="KnMArb0tv8"/>
    </contour>
    <contour>
      <point x="770.7267267267267" y="597.2982982982983" type="line"/>
      <point x="770.7267267267267" y="373.13113113113116" type="line"/>
      <point x="662.6076076076076" y="373.13113113113116" type="line"/>
      <point x="662.6076076076076" y="597.2982982982983" type="line"/>
    </contour>
  </outline>
</glyph>
<glyph name="seven" format="2">
  <advance width="1437"/>
  <unicode hex="0037"/>
  <outline>
    <contour>
      <point x="567" y="0" type="line"/>
      <point x="1156" y="0" type="line" identifier="PiPrv7Kcoy"/>
      <point x="1358" y="1065" type="line" identifier="PkvwNC9Tx1"/>
      <point x="1358" y="1600" type="line" identifier="tgqM27bPOm"/>
      <point x="73" y="1600" type="line" identifier="36ml4xRICt"/>
      <point x="73" y="989" type="line" identifier="aaDZsh5Mah"/>
      <point x="662" y="989" type="line"/>
      <point x="662" y="1227" type="line"/>
      <point x="769" y="1227" type="line"/>
      <point x="769" y="1199" type="line"/>
    </contour>
  </outline>
</glyph>
<glyph name="nine" format="2">
  <advance width="1436"/>
  <unicode hex="0039"/>
  <outline>
    <contour>
      <point x="1361" y="1600" type="line" identifier="uiw6aBUf4P"/>
      <point x="74" y="1600" type="line" identifier="jtYkxiUX6G"/>
      <point x="74" y="678" type="line" identifier="2G5L37c87I"/>
      <point x="772" y="678" type="line"/>
      <point x="772" y="373" type="line"/>
      <point x="665" y="373" type="line"/>
      <point x="665" y="522" type="line"/>
      <point x="76" y="522" type="line" identifier="Wuidbv6mUe"/>
      <point x="76" y="0" type="line" identifier="oGvEEuxnYv"/>
      <point x="1361" y="0" type="line" identifier="xR3pEHbMJx"/>
    </contour>
    <contour>
      <point x="664" y="978" type="line"/>
      <point x="664" y="1227" type="line"/>
      <point x="772" y="1227" type="line"/>
      <point x="772" y="978" type="line"/>
    </contour>
  </outline>
</glyph>
<glyph name="A" format="2">
  <advance width="1472"/>
  <unicode hex="0041"/>
  <outline>
    <contour>
      <point x="90" y="0" type="line" smooth="yes" identifier="jFq8ta4UUc"/>
      <point x="679" y="0" type="line" smooth="yes" identifier="dQz4RxYhG4"/>
      <point x="679" y="484" type="line" smooth="yes" identifier="viYRWe5UN7"/>
      <point x="788" y="484" type="line" smooth="yes" identifier="QVexAlbAcl"/>
      <point x="788" y="0" type="line" smooth="yes" identifier="ZgsCdxNJRW"/>
      <point x="1377" y="0" type="line" smooth="yes" identifier="kpn4Kw9J0C"/>
      <point x="1377" y="1600" type="line" smooth="yes" identifier="OBZ5Ayed7M"/>
      <point x="230" y="1600" type="line" smooth="yes" identifier="iDT0uyhKrn"/>
      <point x="90" y="984" type="line" smooth="yes" identifier="dqVr87m3uJ"/>
    </contour>
    <contour>
      <point x="679" y="857" type="line" smooth="yes" identifier="IIRC9Wy7kQ"/>
      <point x="679" y="984" type="line" smooth="yes" identifier="VufvPdJ075"/>
      <point x="727" y="1227" type="line" smooth="yes" identifier="FsYtJ2vFnp"/>
      <point x="788" y="1227" type="line" smooth="yes" identifier="tUsW8L7b0y"/>
      <point x="788" y="857" type="line" smooth="yes" identifier="eTe9B4y76W"/>
    </contour>
  </outline>
</glyph>
<glyph name="B" format="2">
  <advance width="1380.821821821822"/>
  <unicode hex="0042"/>
  <outline>
    <contour>
      <point x="54.78878878878879" y="0.0" type="line" identifier="hvY9r8RmLr"/>
      <point x="1341.5875875875877" y="0.0" type="line" identifier="9QFpw7nfq7"/>
      <point x="1341.5875875875877" y="625.3843843843844" type="line" identifier="543PerILpr"/>
      <point x="1234.1821821821823" y="799.0" type="line" identifier="zhomauHW30"/>
      <point x="1234.1821821821823" y="801.0" type="line" identifier="870ZhtaozS"/>
      <point x="1337.9079079079079" y="978.2562562562563" type="line" identifier="eGKH52Jgnk"/>
      <point x="1337.9079079079079" y="1600.0" type="line" identifier="FaP204GrdB"/>
      <point x="54.78878878878879" y="1600.0" type="line" identifier="JEev70GAj6"/>
    </contour>
    <contour>
      <point x="644.032032032032" y="962.3613613613613" type="line" identifier="By7dfMihfe"/>
      <point x="644.032032032032" y="1225.2552552552552" type="line" identifier="1p5hKrurVy"/>
      <point x="748.6646646646647" y="1225.2552552552552" type="line" identifier="Qby8aMtF2X"/>
      <point x="748.6646646646647" y="1023.033033033033" type="line" identifier="9lW01gQyU2"/>
      <point x="711.4204204204204" y="962.3613613613613" type="line" identifier="xpxyvIzPoc"/>
    </contour>
    <contour>
      <point x="644.032032032032" y="373.13113113113116" type="line" identifier="jaMSiLrCua"/>
      <point x="644.032032032032" y="637.6386386386387" type="line" identifier="XSrxNd2axx"/>
      <point x="711.4204204204204" y="637.6386386386387" type="line" identifier="VyYlzRh5nq"/>
      <point x="752.3443443443443" y="584.006006006006" type="line" identifier="lsRGatjQja"/>
      <point x="752.3443443443443" y="373.13113113113116" type="line" identifier="xhlDJ3CjD5"/>
    </contour>
  </outline>
</glyph>
<glyph name="C" format="2">
  <advance width="1414.8128128128128"/>
  <unicode hex="0043"/>
  <outline>
    <contour>
      <point x="65.36036036036037" y="0.0" type="line" identifier="7lPhzTnk2Z"/>
      <point x="1351.4794794794796" y="0.0" type="line" identifier="qJVLZGnkwh"/>
      <point x="1351.4794794794796" y="561.1281281281281" type="line" identifier="nDnDHzAMXL"/>
      <point x="762.2362362362362" y="561.1281281281281" type="line" identifier="QX1V08aTu0"/>
      <point x="762.2362362362362" y="373.13113113113116" type="line" identifier="Y750RHTvDj"/>
      <point x="654.6036036036036" y="373.13113113113116" type="line" identifier="L2LsGnXiZ2"/>
      <point x="654.6036036036036" y="996.5765765765766" type="line" identifier="sUWsr03vF4"/>
      <point x="699.8458458458458" y="1226.868868868869" type="line" identifier="dbOUe6OhxL"/>
      <point x="761.2362362362362" y="1226.868868868869" type="line" identifier="5BjRbcud80"/>
      <point x="761.2362362362362" y="897.8798798798798" type="line" identifier="fNVDqwQo2o"/>
      <point x="1350.4794794794796" y="897.8798798798798" type="line" identifier="wLqQQx7QVN"/>
      <point x="1350.4794794794796" y="1600.0" type="line" identifier="9eJelv8BOw"/>
      <point x="184.80480480480483" y="1600.0" type="line" identifier="lfZev3ICaC"/>
      <point x="65.36036036036037" y="1030.7537537537537" type="line" identifier="V1EWIdPahq"/>
    </contour>
  </outline>
</glyph>
<glyph name="G" format="2">
  <advance width="1387.7137137137138"/>
  <unicode hex="0047"/>
  <outline>
    <contour>
      <point x="39.234234234234236" y="0.0" type="line" identifier="7lPhzTnk2Z"/>
      <point x="1323.993993993994" y="0.0" type="line" identifier="qJVLZGnkwh"/>
      <point x="1323.993993993994" y="886.7657657657658" type="line" identifier="uek1NNj7De"/>
      <point x="666.3943943943943" y="886.7657657657658" type="line" identifier="qcvimxjndX"/>
      <point x="666.3943943943943" y="586.2472472472473" type="line" identifier="EARaY3Su65"/>
      <point x="740.1881881881882" y="586.2472472472473" type="line" identifier="4m6dHLVhZq"/>
      <point x="740.1881881881882" y="373.13113113113116" type="line" identifier="Y750RHTvDj"/>
      <point x="628.4774774774775" y="373.13113113113116" type="line" identifier="L2LsGnXiZ2"/>
      <point x="628.4774774774775" y="1053.5175175175175" type="line" identifier="sUWsr03vF4"/>
      <point x="656.8988988988989" y="1226.868868868869" type="line" identifier="dbOUe6OhxL"/>
      <point x="735.1101101101101" y="1226.868868868869" type="line" identifier="5BjRbcud80"/>
      <point x="735.1101101101101" y="1023.9109109109108" type="line" identifier="fNVDqwQo2o"/>
      <point x="1324.3533533533534" y="1023.9109109109108" type="line" identifier="wLqQQx7QVN"/>
      <point x="1324.3533533533534" y="1600.0" type="line" identifier="9eJelv8BOw"/>
      <point x="117.8978978978979" y="1600.0" type="line" identifier="lfZev3ICaC"/>
      <point x="39.234234234234236" y="1068.111111111111" type="line" identifier="V1EWIdPahq"/>
    </contour>
  </outline>
</glyph>
<glyph name="J" format="2">
  <advance width="1417"/>
  <unicode hex="004A"/>
  <outline>
    <contour>
      <point x="109" y="0" type="line" identifier="jiO9eX9U07"/>
      <point x="1348" y="0" type="line" identifier="wgpFs1yguc"/>
      <point x="1348" y="1600" type="line" identifier="d5Di3vNzni"/>
      <point x="65" y="1600" type="line" identifier="TbrXnCyMEi"/>
      <point x="65" y="1227" type="line" identifier="AdYfGKx8QJ"/>
      <point x="758" y="1227" type="line" identifier="46RrD1WET2"/>
      <point x="758" y="373" type="line" identifier="zFXsE8BUYG"/>
      <point x="679" y="373" type="line" identifier="NQmE31PUns"/>
      <point x="650" y="717" type="line" identifier="qiXxY6YhCq"/>
      <point x="62" y="717" type="line" identifier="7exNZv1XSc"/>
    </contour>
  </outline>
</glyph>
<glyph name="N" format="2">
  <advance width="1765.1571571571571"/>
  <unicode hex="004E"/>
  <outline>
    <contour>
      <point x="54.78878878878879" y="0.0" type="line" identifier="CkwYPPvJLv"/>
      <point x="644.032032032032" y="0.0" type="line" identifier="oHTJsN7drZ"/>
      <point x="644.032032032032" y="1089.7117117117118" type="line" identifier="wfBbYd10Pm"/>
      <point x="655.926926926927" y="1089.7117117117118" type="line" identifier="MEnBDHq6zU"/>
      <point x="1127.8428428428429" y="236.987987987988" type="line" identifier="3Nbopwznvn"/>
      <point x="1126.86986986987" y="0.0" type="line"/>
      <point x="1710.3683683683685" y="0.0" type="line" identifier="uKfuudIUvA"/>
      <point x="1710.3683683683685" y="1600.0" type="line" identifier="XRdLFXiM4t"/>
      <point x="1121.1251251251254" y="1600.0" type="line" identifier="MUSJPjCIXg"/>
      <point x="1121.1251251251254" y="1013.2512512512512" type="line" identifier="VILP20cFmq"/>
      <point x="1122.7087087087086" y="752.933933933934" type="line" identifier="z5b04GDwRN"/>
      <point x="669.9069069069069" y="1600.0" type="line" identifier="LL64NQ6WBE"/>
      <point x="54.78878878878879" y="1600.0" type="line" identifier="dzUaaP1sjt"/>
    </contour>
  </outline>
</glyph>
<glyph name="O" format="2">
  <advance width="1367.2672672672672"/>
  <unicode hex="004F"/>
  <outline>
    <contour>
      <point x="1328.033033033033" y="529.9069069069069" type="line" identifier="ob8US3C311"/>
      <point x="1328.033033033033" y="1600.0" type="line" identifier="c9brEFyXXA"/>
      <point x="167.03003003003005" y="1600.0" type="line" identifier="a4Ql951bxG"/>
      <point x="39.234234234234236" y="1067.044044044044" type="line" identifier="kbL68Qh2zr"/>
      <point x="39.234234234234236" y="0.0" type="line" identifier="U6WibAQAUl"/>
      <point x="1200.5575575575576" y="0.0" type="line" identifier="dfgNHTgBfR"/>
    </contour>
    <contour>
      <point x="738.7897897897898" y="598.8088088088089" type="line" identifier="SnrsQD5TLy"/>
      <point x="705.1001001001001" y="373.13113113113116" type="line" identifier="jjd5iRDXWT"/>
      <point x="628.4774774774775" y="373.13113113113116" type="line" identifier="YbQKHpAtYn"/>
      <point x="628.4774774774775" y="1001.0490490490491" type="line" identifier="vdfGLkskOQ"/>
      <point x="662.4874874874874" y="1226.868868868869" type="line" identifier="qXlVxK5ShE"/>
      <point x="738.7897897897898" y="1226.868868868869" type="line" identifier="g70r2r6DwY"/>
    </contour>
  </outline>
</glyph>
<glyph name="R" format="2">
  <advance width="1381.1421421421421"/>
  <unicode hex="0052"/>
  <outline>
    <contour>
      <point x="644.032032032032" y="905.8848848848849" type="line"/>
      <point x="644.032032032032" y="1226.868868868869" type="line"/>
      <point x="748.6646646646647" y="1226.868868868869" type="line"/>
      <point x="748.6646646646647" y="948.2052052052052" type="line"/>
      <point x="712.2272272272272" y="905.8848848848849" type="line"/>
    </contour>
    <contour>
      <point x="1341.9079079079079" y="0.0" type="line"/>
      <point x="1341.9079079079079" y="545.3833833833834" type="line"/>
      <point x="1234.5025025025025" y="718.3193193193193" type="line"/>
      <point x="1234.5025025025025" y="720.3193193193193" type="line"/>
      <point x="1337.9079079079079" y="898.2552552552553" type="line"/>
      <point x="1337.9079079079079" y="1600.0" type="line"/>
      <point x="54.78878878878879" y="1600.0" type="line"/>
      <point x="54.78878878878879" y="0.0" type="line"/>
      <point x="644.032032032032" y="0.0" type="line"/>
      <point x="644.032032032032" y="532.7537537537537" type="line"/>
      <point x="712.2272272272272" y="532.7537537537537" type="line"/>
      <point x="752.6646646646647" y="494.75375375375376" type="line"/>
      <point x="752.6646646646647" y="0.0" type="line"/>
    </contour>
  </outline>
</glyph>
<glyph name="S" format="2">
  <advance width="1438.6626626626626"/>
  <unicode hex="0053"/>
  <outline>
    <contour>
      <point x="81.94394394394395" y="0.0" type="line" identifier="09VlJ0BjUX"/>
      <point x="1359.5375375375377" y="0.0" type="line" identifier="EagWihqFM8"/>
      <point x="1359.5375375375377" y="971.1241241241241" type="line" identifier="KfNuQA7eZe"/>
      <point x="669.3413413413414" y="971.1241241241241" type="line" identifier="At364YZFEy"/>
      <point x="669.3413413413414" y="1251.0730730730731" type="line" identifier="BcuLfvaQKC"/>
      <point x="770.2942942942943" y="1251.0730730730731" type="line" identifier="3ZUkG35meB"/>
      <point x="770.2942942942943" y="1118.7647647647648" type="line" identifier="DTOJhFIl15"/>
      <point x="1359.5375375375377" y="1118.7647647647648" type="line" identifier="9KDcrfQ5Ui"/>
      <point x="1359.5375375375377" y="1600.0" type="line" identifier="SaF9ojRFrW"/>
      <point x="80.0980980980981" y="1600.0" type="line" identifier="F4sQEYelA8"/>
      <point x="80.0980980980981" y="635.6146146146145" type="line" identifier="3sQ8t8BZ6b"/>
      <point x="770.2942942942943" y="635.6146146146145" type="line" identifier="yiV6OCBLHg"/>
      <point x="770.2942942942943" y="373.13113113113116" type="line" identifier="9kdl9SYsn8"/>
      <point x="670.3803803803804" y="373.13113113113116" type="line" identifier="yZDWuX8LLe"/>
      <point x="670.3803803803804" y="496.3373373373373" type="line" identifier="jYb9001DTm"/>
      <point x="81.94394394394395" y="496.3373373373373" type="line" identifier="ho4DrS0rdW"/>
    </contour>
  </outline>
</glyph>
<glyph name="U" format="2">
  <advance width="1380.1421421421421"/>
  <unicode hex="0055"/>
  <outline>
    <contour>
      <point x="736.1101101101101" y="1600.0" type="line" smooth="yes"/>
      <point x="736.1101101101101" y="373.13113113113116" type="line"/>
      <point x="661.2752752752752" y="373.13113113113116" type="line" smooth="yes"/>
      <point x="628.4774774774775" y="535.3293293293293" type="line" smooth="yes"/>
      <point x="628.4774774774775" y="1600.0" type="line"/>
      <point x="39.234234234234236" y="1600.0" type="line" smooth="yes"/>
      <point x="39.234234234234236" y="535.3293293293293" type="line" smooth="yes"/>
      <point x="158.6786786786787" y="0.0" type="line" smooth="yes"/>
      <point x="1325.3533533533534" y="0.0" type="line" smooth="yes"/>
      <point x="1325.3533533533534" y="1600.0" type="line" smooth="yes"/>
    </contour>
  </outline>
</glyph>
<glyph name="W" format="2">
  <advance width="2141"/>
  <unicode hex="0057"/>
  <outline>
    <contour>
      <point x="696" y="1600" type="line" smooth="yes" identifier="12Pyby1xY2"/>
      <point x="106" y="1600" type="line" smooth="yes" identifier="5LJg4ajoG6"/>
      <point x="106" y="0" type="line" smooth="yes" identifier="ZqTZqAY3uY"/>
      <point x="1005" y="0" type="line" smooth="yes" identifier="rCeQLyjlsN"/>
      <point x="1061" y="259" type="line"/>
      <point x="1075" y="259" type="line"/>
      <point x="1116" y="0" type="line" smooth="yes" identifier="Pkl7cZ37MU"/>
      <point x="1914" y="0" type="line" smooth="yes" identifier="R4lklfJsHA"/>
      <point x="2047" y="522" type="line" smooth="yes" identifier="7g7f8Wu7K4"/>
      <point x="2047" y="1600" type="line" smooth="yes" identifier="RTOJW56qXy"/>
      <point x="1457" y="1600" type="line" identifier="JfSFAkWGZC"/>
      <point x="1457" y="534" type="line" smooth="yes" identifier="WWvGwSpq0g"/>
      <point x="1411" y="373" type="line" smooth="yes" identifier="oee4nqI8Wl"/>
      <point x="1369" y="373" type="line" identifier="Ljn2lpvpG8"/>
      <point x="1349" y="528" type="line"/>
      <point x="1350" y="1358" type="line" smooth="yes"/>
      <point x="804" y="1358" type="line"/>
      <point x="803" y="547" type="line"/>
      <point x="803" y="533" type="line"/>
      <point x="771" y="373" type="line" identifier="GlWB6PG54Z"/>
      <point x="696" y="373" type="line" identifier="iqeTRv7HXg"/>
    </contour>
  </outline>
</glyph>
<glyph name="X" format="2">
  <advance width="1378.6266266266266"/>
  <unicode hex="0058"/>
  <outline>
    <contour>
      <point x="691.1281281281281" y="613.4344344344345" type="line"/>
      <point x="750.1491491491491" y="567.4344344344345" type="line"/>
      <point x="750.1491491491491" y="0.0" type="line"/>
      <point x="1339.3923923923924" y="0.0" type="line"/>
      <point x="1339.3923923923924" y="618.064064064064" type="line"/>
      <point x="1213.0830830830832" y="799.0" type="line"/>
      <point x="1213.0830830830832" y="801.0" type="line"/>
      <point x="1335.3923923923924" y="978.935935935936" type="line"/>
      <point x="1335.3923923923924" y="1600.0" type="line"/>
      <point x="746.9559559559559" y="1600.0" type="line"/>
      <point x="746.9559559559559" y="1029.5655655655655" type="line"/>
      <point x="691.1281281281281" y="986.5655655655655" type="line"/>
      <point x="687.4984984984985" y="986.5655655655655" type="line"/>
      <point x="631.6706706706707" y="1029.5655655655655" type="line"/>
      <point x="631.6706706706707" y="1600.0" type="line"/>
      <point x="43.234234234234236" y="1600.0" type="line"/>
      <point x="43.234234234234236" y="978.935935935936" type="line"/>
      <point x="165.54354354354356" y="801.0" type="line"/>
      <point x="165.54354354354356" y="799.0" type="line"/>
      <point x="39.234234234234236" y="618.064064064064" type="line"/>
      <point x="39.234234234234236" y="0.0" type="line"/>
      <point x="628.4774774774775" y="0.0" type="line"/>
      <point x="628.4774774774775" y="567.4344344344345" type="line"/>
      <point x="687.4984984984985" y="613.4344344344345" type="line"/>
    </contour>
  </outline>
</glyph>
<glyph name="Z" format="2">
  <advance width="1353.4044044044044"/>
  <unicode hex="005A"/>
  <outline>
    <contour>
      <point x="28.3983983983984" y="0.0" type="line"/>
      <point x="1314.5175175175175" y="0.0" type="line" identifier="pzdvPTirLJ"/>
      <point x="1314.5175175175175" y="560.4184184184185" type="line" identifier="91SxUS0iwG"/>
      <point x="725.2742742742743" y="560.4184184184185" type="line"/>
      <point x="725.2742742742743" y="373.13113113113116" type="line"/>
      <point x="617.6416416416416" y="373.13113113113116" type="line"/>
      <point x="617.6416416416416" y="521.4504504504505" type="line"/>
      <point x="1323.5535535535537" y="1223.3913913913914" type="line" identifier="yyb1NCCI5w"/>
      <point x="1323.5535535535537" y="1600.0" type="line" identifier="5FogYRSgkk"/>
      <point x="32.07807807807808" y="1600.0" type="line" identifier="svlFvrau4c"/>
      <point x="32.07807807807808" y="1098.0580580580581" type="line" identifier="LQ9fBsTy9K"/>
      <point x="560.1501501501501" y="1098.0580580580581" type="line"/>
      <point x="560.1501501501501" y="1226.868868868869" type="line"/>
      <point x="731.0830830830831" y="1226.868868868869" type="line"/>
      <point x="731.0830830830831" y="1208.868868868869" type="line"/>
      <point x="28.3983983983984" y="524.4504504504505" type="line" identifier="teVKnpBcVb"/>
    </contour>
  </outline>
</glyph>
<glyph name="C.wide" format="2">
  <advance width="1415"/>
  <outline>
    <contour>
      <point x="65" y="0" type="line" identifier="7lPhzTnk2Z"/>
      <point x="1351" y="0" type="line" identifier="qJVLZGnkwh"/>
      <point x="1351" y="373" type="line" identifier="Y750RHTvDj"/>
      <point x="655" y="373" type="line" identifier="L2LsGnXiZ2"/>
      <point x="655" y="997" type="line" identifier="sUWsr03vF4"/>
      <point x="700" y="1227" type="line" identifier="dbOUe6OhxL"/>
      <point x="1350" y="1227" type="line" identifier="5BjRbcud80"/>
      <point x="1350" y="1600" type="line" identifier="9eJelv8BOw"/>
      <point x="185" y="1600" type="line" identifier="lfZev3ICaC"/>
      <point x="65" y="1031" type="line" identifier="V1EWIdPahq"/>
    </contour>
  </outline>
</glyph>
<glyph name="F.wide" format="2">
  <advance width="1454"/>
  <outline>
    <contour>
      <point x="95" y="0" type="line" identifier="oAgH2tA6DJ"/>
      <point x="684" y="0" type="line" identifier="zCZyMcW5ho"/>
      <point x="684" y="404" type="line" identifier="yHYqkMd7LI"/>
      <point x="1288" y="404" type="line" identifier="NmB7yyQuio"/>
      <point x="1288" y="777" type="line" identifier="wQk2C8zPHh"/>
      <point x="684" y="777" type="line" identifier="4cFHKQfHDt"/>
      <point x="684" y="1227" type="line" identifier="ZvzwyrcwpS"/>
      <point x="1370" y="1227" type="line" identifier="4E754ovOIe"/>
      <point x="1370" y="1600" type="line" identifier="NUrIjqOB7J"/>
      <point x="95" y="1600" type="line" identifier="TBAYuCfUFX"/>
    </contour>
  </outline>
</glyph>
<glyph name="G.wide" format="2">
  <advance width="1391.1191191191192"/>
  <outline>
    <contour>
      <point x="39.234234234234236" y="0.0" type="line" identifier="7lPhzTnk2Z"/>
      <point x="1323.993993993994" y="0.0" type="line" identifier="qJVLZGnkwh"/>
      <point x="1323.993993993994" y="886.7657657657658" type="line" identifier="uek1NNj7De"/>
      <point x="666.3943943943943" y="886.7657657657658" type="line" identifier="qcvimxjndX"/>
      <point x="666.3943943943943" y="586.2472472472473" type="line" identifier="EARaY3Su65"/>
      <point x="740.1881881881882" y="586.2472472472473" type="line" identifier="4m6dHLVhZq"/>
      <point x="740.1881881881882" y="373.13113113113116" type="line" identifier="Y750RHTvDj"/>
      <point x="628.4774774774775" y="373.13113113113116" type="line" identifier="L2LsGnXiZ2"/>
      <point x="628.4774774774775" y="1053.5175175175175" type="line" identifier="sUWsr03vF4"/>
      <point x="656.8988988988989" y="1226.868868868869" type="line" identifier="dbOUe6OhxL"/>
      <point x="1324.3533533533534" y="1226.868868868869" type="line" identifier="5BjRbcud80"/>
      <point x="1324.3533533533534" y="1600.0" type="line" identifier="9eJelv8BOw"/>
      <point x="117.8978978978979" y="1600.0" type="line" identifier="lfZev3ICaC"/>
      <point x="39.234234234234236" y="1068.111111111111" type="line" identifier="V1EWIdPahq"/>
    </contour>
  </outline>
</glyph>
<glyph name="K.alt" format="2">
  <advance width="1435"/>
  <outline>
    <contour>
      <point x="659" y="0" type="line" identifier="wmNm7XZsaF"/>
      <point x="659" y="613" type="line" identifier="O22liaP9Qk"/>
      <point x="708" y="613" type="line" identifier="ELFBWIb1vd"/>
      <point x="767" y="558" type="line" identifier="DzXo67YEfw"/>
      <point x="767" y="0" type="line" identifier="aKpYWD78l2"/>
      <point x="1356" y="0" type="line" identifier="ChS7KlqGi6"/>
      <point x="1356" y="608" type="line" identifier="sWLgkU8Vey"/>
      <point x="1230" y="799" type="line" identifier="Of0iQc0wBG"/>
      <point x="1230" y="801" type="line" identifier="j4jnmtDJYB"/>
      <point x="1339" y="1600" type="line" identifier="dMJ1ywOKQQ"/>
      <point x="777" y="1600" type="line" identifier="08OWjR2YBJ"/>
      <point x="717" y="987" type="line" identifier="g4YLdZEoM3"/>
      <point x="659" y="987" type="line" identifier="uZuki3Isec"/>
      <point x="659" y="1600" type="line" identifier="nRfcNgqJ4H"/>
      <point x="70" y="1600" type="line" identifier="3XJlWt89ad"/>
      <point x="70" y="0" type="line" identifier="wdbO8kCovY"/>
    </contour>
  </outline>
</glyph>
<glyph name="N.wide" format="2">
  <advance width="1910"/>
  <outline>
    <contour>
      <point x="166" y="0" type="line" identifier="CkwYPPvJLv"/>
      <point x="755" y="0" type="line" identifier="oHTJsN7drZ"/>
      <point x="755" y="1090" type="line" identifier="wfBbYd10Pm"/>
      <point x="767" y="1090" type="line" identifier="MEnBDHq6zU"/>
      <point x="1239" y="0" type="line" identifier="3Nbopwznvn"/>
      <point x="1822" y="0" type="line" identifier="uKfuudIUvA"/>
      <point x="1822" y="1600" type="line" identifier="XRdLFXiM4t"/>
      <point x="1232" y="1600" type="line" identifier="MUSJPjCIXg"/>
      <point x="1232" y="549" type="line" identifier="VILP20cFmq"/>
      <point x="1230" y="549" type="line" identifier="z5b04GDwRN"/>
      <point x="781" y="1600" type="line" identifier="LL64NQ6WBE"/>
      <point x="166" y="1600" type="line" identifier="dzUaaP1sjt"/>
    </contour>
  </outline>
</glyph>
<glyph name="R.alt" format="2">
  <advance width="1470.1461461461463"/>
  <outline>
    <contour>
      <point x="683.8398398398398" y="905.8848848848849" type="line"/>
      <point x="683.8398398398398" y="1226.868868868869" type="line"/>
      <point x="788.4724724724724" y="1226.868868868869" type="line"/>
      <point x="788.4724724724724" y="905.8848848848849" type="line"/>
    </contour>
    <contour>
      <point x="1385.5715715715717" y="0.0" type="line"/>
      <point x="1268.994994994995" y="630.9299299299299" type="line"/>
      <point x="1377.7157157157158" y="679.3383383383383" type="line"/>
      <point x="1377.7157157157158" y="1600.0" type="line"/>
      <point x="94.59659659659661" y="1600.0" type="line"/>
      <point x="94.59659659659661" y="0.0" type="line"/>
      <point x="683.8398398398398" y="0.0" type="line"/>
      <point x="683.8398398398398" y="532.7537537537537" type="line"/>
      <point x="768.022022022022" y="531.3943943943943" type="line"/>
      <point x="850.7027027027027" y="0.0" type="line"/>
    </contour>
  </outline>
</glyph>
<glyph name="S.alt" format="2">
  <advance width="1340.6026026026025"/>
  <outline>
    <contour>
      <point x="66.03003003003003" y="0.0" type="line" identifier="09VlJ0BjUX"/>
      <point x="1271.4234234234234" y="0.0" type="line" identifier="EagWihqFM8"/>
      <point x="1271.4234234234234" y="962.3613613613613" type="line" identifier="KfNuQA7eZe"/>
      <point x="580.5475475475475" y="962.3613613613613" type="line" identifier="At364YZFEy"/>
      <point x="580.5475475475475" y="1087.7727727727727" type="line"/>
      <point x="613.5065065065065" y="1226.868868868869" type="line"/>
      <point x="681.5005005005005" y="1226.868868868869" type="line" identifier="3ZUkG35meB"/>
      <point x="681.5005005005005" y="1158.5385385385384" type="line" identifier="DTOJhFIl15"/>
      <point x="1271.4234234234234" y="1158.5385385385384" type="line" identifier="9KDcrfQ5Ui"/>
      <point x="1271.4234234234234" y="1600.0" type="line" identifier="SaF9ojRFrW"/>
      <point x="192.3883883883884" y="1600.0" type="line"/>
      <point x="64.03003003003003" y="1128.5535535535535" type="line"/>
      <point x="64.03003003003003" y="637.6386386386387" type="line" identifier="3sQ8t8BZ6b"/>
      <point x="681.5005005005005" y="637.6386386386387" type="line" identifier="yiV6OCBLHg"/>
      <point x="681.5005005005005" y="373.13113113113116" type="line" identifier="9kdl9SYsn8"/>
      <point x="636.9219219219219" y="373.13113113113116" type="line" identifier="yZDWuX8LLe"/>
      <point x="636.9219219219219" y="492.3033033033033" type="line" identifier="jYb9001DTm"/>
      <point x="66.03003003003003" y="492.3033033033033" type="line" identifier="ho4DrS0rdW"/>
    </contour>
  </outline>
</glyph>
<glyph name="S.wide" format="2">
  <advance width="1343"/>
  <outline>
    <contour>
      <point x="68" y="0" type="line" identifier="09VlJ0BjUX"/>
      <point x="1273" y="0" type="line" identifier="EagWihqFM8"/>
      <point x="1273" y="962" type="line" identifier="KfNuQA7eZe"/>
      <point x="582" y="962" type="line" identifier="At364YZFEy"/>
      <point x="582" y="1088" type="line"/>
      <point x="615" y="1227" type="line"/>
      <point x="1273" y="1227" type="line" identifier="3ZUkG35meB"/>
      <point x="1273" y="1600" type="line" identifier="SaF9ojRFrW"/>
      <point x="194" y="1600" type="line"/>
      <point x="66" y="1129" type="line"/>
      <point x="66" y="638" type="line" identifier="3sQ8t8BZ6b"/>
      <point x="683" y="638" type="line" identifier="yiV6OCBLHg"/>
      <point x="683" y="373" type="line" identifier="9kdl9SYsn8"/>
      <point x="68" y="373" type="line" identifier="yZDWuX8LLe"/>
    </contour>
  </outline>
</glyph>
<glyph name="Z.wide" format="2">
  <advance width="1432"/>
  <outline>
    <contour>
      <point x="73" y="0" type="line"/>
      <point x="1359" y="0" type="line" identifier="pzdvPTirLJ"/>
      <point x="1359" y="373" type="line"/>
      <point x="662" y="373" type="line"/>
      <point x="662" y="521" type="line"/>
      <point x="1368" y="1272" type="line" identifier="yyb1NCCI5w"/>
      <point x="1368" y="1600" type="line" identifier="5FogYRSgkk"/>
      <point x="77" y="1600" type="line" identifier="svlFvrau4c"/>
      <point x="77" y="1227" type="line"/>
      <point x="776" y="1227" type="line"/>
      <point x="776" y="1258" type="line"/>
      <point x="73" y="524" type="line" identifier="teVKnpBcVb"/>
    </contour>
  </outline>
</glyph>
